<svg fill="none" height="51" viewBox="0 0 149 51" width="149" xmlns="http://www.w3.org/2000/svg">
  <g opacity="0.5">
    <path
      d="M38.8211 48.8807C39.5016 48.8807 40.0146 48.3227 40.0146 47.4573C40.0146 46.6075 39.5248 46.0094 38.8285 46.0094C38.1628 46.0094 37.635 46.5351 37.635 47.4573C37.635 48.2336 38.0869 48.8807 38.8211 48.8807ZM36.8323 43.7039H37.6656V45.8968C37.773 45.7108 38.2017 45.2252 38.959 45.2252C40.0988 45.2252 40.8553 46.1464 40.8553 47.4494C40.8553 48.7436 40.0451 49.658 38.9053 49.658C38.1332 49.658 37.7267 49.1479 37.6202 49.0021V49.5522H36.8323V43.7039Z"
      fill="#A7A5A6"/>
    <path d="M42.3718 51L42.9384 49.4797L41.3542 45.3299H42.2496L43.3282 48.4038L44.3912 45.3299H45.2633L43.1745 51H42.3718Z" fill="#A7A5A6"/>
    <path clip-rule="evenodd"
          d="M74.2831 43.7825C74.2813 43.4419 74.0989 43.2314 73.76 43.2314H71.4971C70.2805 43.2314 69.7565 43.7816 69.7565 45.0718V47.6484C69.7565 48.1575 69.5407 48.3846 69.0454 48.3846H66.1011C65.7872 48.3846 65.5789 48.599 65.5789 48.9407C65.5789 49.2706 65.7788 49.4879 66.0937 49.4879H69.0454C70.2574 49.4879 70.7999 48.9377 70.7999 47.6484V45.0718C70.7999 44.5236 70.9879 44.3366 71.4971 44.3366H73.76C74.0989 44.3366 74.2813 44.1203 74.2831 43.7825"
          fill="#A7A5A6" fill-rule="evenodd"/>
    <path clip-rule="evenodd"
          d="M56.179 43.23L50.957 43.2309C49.9126 43.2309 49.2163 43.9671 49.2163 45.0724V47.649C49.2163 48.7533 49.9126 49.4885 50.957 49.4865H55.1346C55.4827 49.4885 55.8299 49.1214 55.8299 48.7533V47.465C55.8299 47.1458 55.6059 46.9128 55.3198 46.9128C54.9939 46.9128 54.7865 47.1292 54.7865 47.465V48.3852H50.957C50.6088 48.3852 50.2607 48.0161 50.2607 47.649V45.0724C50.2607 44.7033 50.6088 44.3362 50.957 44.3342L56.179 44.3362C56.528 44.3362 56.8762 44.7033 56.8762 45.0724V48.9373C56.8762 49.2271 57.0845 49.4885 57.3984 49.4885C57.6937 49.4885 57.9197 49.3132 57.9197 48.9373V45.0724C57.9197 43.9671 57.2243 43.2309 56.179 43.23Z"
          fill="#A7A5A6" fill-rule="evenodd"/>
    <path clip-rule="evenodd"
          d="M75.3271 47.6484C75.3271 48.9377 75.8382 49.4879 77.0678 49.4879H83.5074C83.8222 49.4879 84.0305 49.2745 84.0305 48.9338C84.0305 48.6039 83.8296 48.3846 83.5139 48.3846H77.0678C76.5447 48.3758 76.3706 48.1869 76.3706 47.6484V45.0718C76.3706 44.5216 76.5604 44.3356 77.0678 44.3356H82.2898C82.7815 44.3356 82.9861 44.5285 82.9861 45.0718C82.9861 45.623 82.8037 45.808 82.2898 45.808H77.9419C77.591 45.808 77.4197 45.993 77.4197 46.3592C77.4197 46.7135 77.5974 46.9123 77.9419 46.9123H82.2898C83.5222 46.9123 84.0305 46.3592 84.0305 45.0718C84.0305 43.7835 83.5055 43.2314 82.2898 43.2314H77.0678C75.8169 43.2314 75.3271 43.7825 75.3271 45.0718V47.6484Z"
          fill="#A7A5A6" fill-rule="evenodd"/>
    <path clip-rule="evenodd"
          d="M85.0745 47.6484C85.0745 48.9377 85.5865 49.4879 86.8151 49.4879H92.6658C92.9806 49.4879 93.188 49.2745 93.188 48.9338C93.188 48.6039 93.0066 48.3846 92.6723 48.3846H86.8151C86.2939 48.3758 86.1179 48.1869 86.1179 47.6484V45.0718C86.1179 44.5344 86.2939 44.3435 86.8151 44.3356H92.6584C92.9742 44.3356 93.1816 44.1242 93.1816 43.7835C93.1816 43.4526 92.9806 43.2314 92.6649 43.2314H86.8151C85.5865 43.2314 85.0745 43.7825 85.0745 45.0718V47.6484Z"
          fill="#A7A5A6" fill-rule="evenodd"/>
    <path clip-rule="evenodd"
          d="M96.0789 48.3834C95.5567 48.3756 95.3826 48.1759 95.3826 47.6394V45.0628C95.3826 44.5253 95.5567 44.3432 96.0789 44.3364H101.301C101.822 44.3432 101.997 44.5341 101.997 45.0716V47.6394C101.997 48.1759 101.822 48.3756 101.301 48.3844L96.0789 48.3834ZM94.3391 47.6394C94.3391 48.9287 94.8511 49.4877 96.0789 49.4877H101.301C102.53 49.4877 103.042 48.9287 103.042 47.6394V45.0628C103.042 43.7745 102.53 43.2311 101.301 43.2311H96.0789C94.8511 43.2311 94.3391 43.7745 94.3391 45.0628V47.6394Z"
          fill="#A7A5A6" fill-rule="evenodd"/>
    <path clip-rule="evenodd"
          d="M67.6674 43.7825C67.6655 43.4419 67.4831 43.2314 67.1433 43.2314H64.8814C63.6648 43.2314 63.1398 43.7816 63.1398 45.0718V47.6484C63.1398 48.1575 62.925 48.3846 62.4296 48.3846H59.4649C59.152 48.3846 58.9622 48.599 58.9622 48.9407C58.9622 49.2706 59.152 49.4879 59.4649 49.4879H62.4296C63.6407 49.4879 64.1842 48.9377 64.1842 47.6484V45.0718C64.1842 44.5236 64.3721 44.3366 64.8814 44.3366H67.1433C67.4841 44.3366 67.6655 44.1203 67.6674 43.7825"
          fill="#A7A5A6" fill-rule="evenodd"/>
    <path
      d="M55.3902 27.9656C54.4458 28.7141 52.2534 30.3181 49.1841 30.3181C44.1247 30.3181 40.8193 26.2547 40.8193 21.0865C40.8193 15.9182 44.2259 11.8549 49.1503 11.8549C51.9161 11.8549 54.0748 13.2449 55.0867 14.0647L56.1997 10.5717C54.8168 9.46675 52.3883 8.14795 49.0492 8.14795C42.1347 8.14795 36.9404 13.7439 36.9404 21.0865C36.9404 28.429 41.9323 34.025 49.0829 34.025C52.7256 34.025 55.3228 32.3854 56.5033 31.423L55.3902 27.9656Z"
      fill="#A7A5A6"/>
    <path
      d="M59.2846 24.33C59.2846 29.9617 62.9273 34.025 68.4252 34.025C72.6076 34.025 74.9349 31.4943 75.7781 29.9617L73.3496 28.0369C72.675 29.0706 71.1572 30.6389 68.4926 30.6389C65.3558 30.6389 63.096 28.5003 63.0285 25.1854H76.284C76.3178 24.8647 76.3178 24.5439 76.3178 24.2231C76.3178 18.3776 73.181 14.4925 67.8518 14.4925C63.0285 14.4925 59.2846 18.5558 59.2846 24.33ZM63.1634 22.5122C63.3995 19.5894 65.3558 17.736 67.8855 17.736C70.4152 17.736 72.4389 19.4469 72.5738 22.5122H63.1634Z"
      fill="#A7A5A6"/>
    <path d="M88.5791 14.4925C86.0831 14.4925 84.228 16.0251 83.5534 17.8786V14.9558H79.9444V33.5616H83.6209V25.5419C83.6209 21.5142 84.734 18.4132 88.5791 18.4132V14.4925Z" fill="#A7A5A6"/>
    <path
      d="M93.3075 14.9558H91.3512V18.1637H93.3075V26.2191C93.3075 30.7814 94.5892 33.8111 98.8728 33.8111C100.02 33.8111 100.66 33.6686 100.66 33.6686V30.3181C100.66 30.3181 100.256 30.3537 99.9521 30.3537C97.9958 30.3537 96.9502 29.7121 96.9502 26.825V18.1637H100.525V14.9558H96.9502V11.0707H93.3075V14.9558Z"
      fill="#A7A5A6"/>
    <path d="M110.288 34.025C112.649 34.025 114.471 32.6349 115.247 31.1379V33.5616H118.856V14.9558H115.179V26.1835C115.179 28.7498 113.661 30.5319 111.334 30.5319C109.31 30.5319 107.793 29.0349 107.793 26.4686V14.9558H104.15V26.1478C104.15 30.2112 105.735 34.025 110.288 34.025Z" fill="#A7A5A6"/>
    <path
      d="M148.362 21.4073C148.362 17.3796 146.338 14.4925 142.358 14.4925C139.93 14.4925 137.973 15.633 136.928 17.5934C136.085 15.7043 134.331 14.4925 131.868 14.4925C129.474 14.4925 127.753 15.9538 127.113 17.3796C127.113 17.3796 127.113 16.5241 127.113 14.9558H123.504V33.5616H127.18V22.3696C127.18 19.6964 128.732 17.9855 130.722 17.9855C132.813 17.9855 134.095 19.5182 134.095 22.0488V33.5616H137.771V22.4409C137.771 19.5895 139.289 17.9855 141.346 17.9855C143.539 17.9855 144.719 19.5182 144.719 22.4053V33.5616H148.362V21.4073Z"
      fill="#A7A5A6"/>
    <path clip-rule="evenodd"
          d="M19.9342 14.2077C20.5888 13.7662 20.799 12.8636 20.3962 12.1636C19.0296 9.80041 16.6667 8.3819 14.0585 8.3819C9.96238 8.3819 6.61621 11.9228 6.61621 16.2449C6.61621 20.5944 9.96238 24.1236 14.0585 24.1236C16.6667 24.1236 19.0296 22.708 20.3962 20.3252C20.799 19.6321 20.5888 18.7344 19.9342 18.3007C19.275 17.8661 18.4195 18.0961 18.0176 18.7971C17.1528 20.2733 15.6853 21.1603 14.0585 21.1603C11.4938 21.1603 9.4124 18.9605 9.4124 16.2449C9.4124 13.542 11.4938 11.3325 14.0585 11.3325C15.6853 11.3325 17.1528 12.2145 18.0176 13.7182C18.4195 14.4074 19.275 14.6335 19.9342 14.2077Z"
          fill="white" fill-rule="evenodd"/>
    <path
      d="M20.3962 12.1636C20.799 12.8636 20.5888 13.7662 19.9342 14.2077C19.275 14.6336 18.4194 14.4074 18.0176 13.7182C17.1528 12.2145 15.6853 11.3325 14.0585 11.3325C11.4938 11.3325 9.41238 13.542 9.41238 16.2449C9.41238 18.9606 11.4938 21.1603 14.0585 21.1603C15.6853 21.1603 17.1528 20.2734 18.0176 18.7971C18.4194 18.0961 19.275 17.8661 19.9342 18.3007C20.5888 18.7344 20.799 19.6321 20.3962 20.3252C19.0296 22.708 16.6667 24.1236 14.0585 24.1236C9.96236 24.1236 6.61619 20.5945 6.61619 16.2449C6.61619 11.9228 9.96236 8.38192 14.0585 8.38192C16.6667 8.38192 19.0296 9.80043 20.3962 12.1636ZM1.53861 4.42692C1.37936 4.53265 1.24973 4.70201 1.20622 4.90172C-0.100213 9.98154 -3.08065 27.0507 13.3067 33.363C13.3937 33.3963 13.4752 33.4159 13.5687 33.4159H13.6094H13.652C13.7409 33.4159 13.8279 33.3963 13.9196 33.363C30.3236 27.0429 27.32 9.98154 26.0247 4.90172C25.9719 4.70201 25.8423 4.53265 25.6793 4.41419C22.0693 2.03434 17.9028 0.782253 13.615 0.781274H13.6048C9.32812 0.782253 5.16439 2.03434 1.53861 4.42692Z"
      fill="#A7A5A6"/>
  </g>
</svg>
